<?xml version="1.0" encoding="utf-8" ?><svg xmlns="http://www.w3.org/2000/svg" xmlns:xlink="http://www.w3.org/1999/xlink" width="1408" height="768" viewBox="0 0 1408 768"><path fill="#0A1A35" d="M683.438 0L720.243 0L720.991 0.157795C729.418 1.894 739.188 2.15803 747.378 3.6804C773.751 8.58228 811.023 21.2895 832.36 36.6178C843.015 20.0284 855.169 8.90354 875.023 4.60648C892.26 0.809654 910.299 4.07374 925.114 13.6699C939.56 23.1816 949.614 38.0647 953.047 55.0182C956.469 71.8231 953.05 89.2988 943.549 103.575C936.343 114.487 928.596 119.881 917.638 126.477C927.403 144.582 935.635 164.308 940.364 184.375C948.058 184.018 957.002 182.752 963.35 188.18C967.43 191.668 967.809 196.657 963.728 200.444C958.186 205.587 952.065 205.016 945.099 204.801C947.534 227.234 949.221 249.526 950.565 272.044C951.276 283.951 952.683 297.157 952.981 308.913C973.373 290.631 993.542 272.102 1013.48 253.331C1012.46 241.351 1008.94 220.075 1026.36 219.204C1037.65 218.641 1041.56 231.562 1044.91 240.041C1061.25 231.61 1082.54 216.871 1100.59 222.764C1108.99 225.566 1115.93 231.571 1119.91 239.47C1130.96 261.379 1116.14 277.333 1103.91 294.072C1100.63 298.564 1097.26 303.039 1093.97 307.526L1062.62 350.445C1031.89 392.548 998.542 440.008 966.583 480.599C972.293 484.939 977.668 489.704 982.661 494.853C990.152 484.613 997.699 474.414 1005.3 464.256C1024.17 439.011 1038.69 422.336 1071.64 417.186C1094.5 413.554 1117.86 419.21 1136.53 432.894C1155.56 446.629 1168.23 467.458 1171.7 490.666C1175.12 514.1 1169.04 537.931 1154.81 556.858C1147.15 567.225 1137.23 578.197 1128.46 587.658C1096.01 623.189 1058.51 653.747 1017.15 678.346C997.83 690.072 971.987 701.674 956.094 716.083C971.977 717.67 985.209 722.975 995.553 735.68C1002.91 744.872 1007.04 756.229 1007.3 768L395.947 768C398.982 735.711 416.373 721.044 447.152 715.995C367.946 653.919 355.721 547.106 436.846 480.717C392.755 421.64 349.112 362.229 305.921 302.491C293.777 317.378 281.77 343.372 261.903 347.612C232.281 353.935 199.726 318.995 219.412 290.52C227.39 278.98 234.827 268.381 242.78 257.407C260.877 232.719 279.101 208.125 297.451 183.625L325.005 145.957C327.1 143.053 341.651 122.346 344.597 120.493C364.413 108.275 386.437 97.1139 408.313 89.0657C412.195 87.589 417.594 93.0231 417.215 96.7318C415.075 117.703 411.622 141.174 407.418 161.769C406.066 168.391 396.898 180.663 393.09 185.925C384.133 198.303 374.911 210.4 365.801 222.49C380.244 245.163 390.291 253.697 409.957 271.664L450.406 308.86C454.549 276.418 451.904 236.247 458.898 204.869C452.092 205.022 445.787 205.574 440.134 201.009C435.849 197.549 435.219 192.872 439.358 188.96C445.687 182.977 455.306 184.135 463.322 184.344C468.988 160.792 474.963 147.482 485.763 126.536C474.918 119.994 467.544 114.471 460.336 103.78C450.673 89.5945 447.109 72.1227 450.446 55.2857C453.718 38.5816 464.142 23.4621 478.235 14.0061C492.959 4.23817 510.974 0.755565 528.277 4.33205C548.212 8.39107 560.691 20.1312 571.487 36.5709C596.968 20.7363 625.135 9.70555 654.593 4.02529C663.577 2.3326 674.078 2.03318 682.719 0.159649L683.438 0Z"/><path fill="#F47316" d="M484.849 204.638L527.11 204.776C531.783 253.816 587.433 281.236 630.787 262.392C641.126 257.898 646.396 253.615 654.847 246.203C659.839 269.059 672.021 281.309 692.473 291.905L692.286 292.748C685.119 324.522 658.005 339.374 626.783 332.809C612.544 329.816 599.162 319.875 593.192 306.594C590.997 301.71 589.161 295.913 586.413 291.235C580.23 282.255 570.835 285.173 570.105 296.015C569.381 306.759 576.495 318.578 582.848 326.562C596.53 343.757 615.554 351.368 636.853 353.609C641.703 371.8 647.821 409.564 672.668 411.197C695.625 412.705 738.076 419.116 752.467 397.155C758.369 388.148 764.067 364.65 766.334 353.503C787.047 353.656 811.491 340.606 823.266 323.668C828.887 315.584 834.917 304.18 833.021 294.123C832.159 289.549 829.516 284.455 823.946 286.21C814.355 289.192 813.433 302.663 808.5 310.653C801.238 322.413 791.159 329.043 778.012 332.647C764.172 336.393 747.094 334.275 734.861 326.794C720.324 317.904 715.023 307.489 711.015 291.895C730.564 282.039 744.833 268.131 748.279 245.784C760.757 257.056 772.42 264.113 789.08 267.129C809.185 270.776 829.916 266.304 846.729 254.693C865.106 241.882 872.945 226.16 876.829 204.761L905.932 204.787L919.03 204.859C922.047 228.878 923.453 252.603 925.129 276.722L931.298 366.541L936.416 444.482C938.76 479.206 942.386 512.323 936.357 546.938C925.072 608.682 889.805 663.447 838.264 699.264C787.476 735.447 724.342 749.848 662.889 739.266C599.159 728.148 542.5 692.057 505.48 638.999C484.396 608.751 470.824 573.913 465.889 537.373C461.589 506.535 465.096 471.754 467.252 440.557L473.521 346.953L478.913 266.2C480.28 245.892 481.248 224.612 484.849 204.638Z"/><path fill="#0A1A35" d="M661.838 428.966C672.406 429.492 681.123 438.909 690.89 440.344C700.255 441.72 713.567 441.353 722.199 437.118C727.778 434.596 732.83 430.285 739.099 429.712C744.761 429.196 748.223 431.94 748.078 437.715C747.956 442.592 745.978 444.133 742.637 447.272C710.139 472.402 636.059 453.118 661.838 428.966Z"/><path fill="#F47316" d="M689.655 25.7203C693.41 25.1224 704.255 25.2192 708.147 25.3274C741.311 26.2432 773.866 34.4571 803.496 49.3846C860.716 78.0934 894.098 124.779 913.894 184.251L876.852 184.346C875.468 179.056 874.096 173.971 871.956 168.921C864.275 150.81 849.768 136.454 831.579 128.963C812.593 121.294 791.325 121.556 772.534 129.69C747.861 140.262 739.149 155.652 729.707 179.311C723.283 177.312 719.011 176.122 712.435 174.798C696.819 172.894 688.554 174.813 673.822 179.774C671.342 172.319 669.56 166.744 665.652 159.945C655.801 143.078 639.635 130.832 620.731 125.917C600.836 120.763 579.709 123.721 561.996 134.142C541.397 146.194 532.965 162.202 527.144 184.458C514.89 184.063 501.723 184.273 489.401 184.257C498.332 154.982 512.835 127.709 532.114 103.937C573.032 54.2072 626.953 31.8045 689.655 25.7203Z"/><path fill="#FDFDFD" d="M592.62 143.311C621.668 138.732 648.934 158.551 653.547 187.596C658.16 216.641 638.376 243.933 609.339 248.582C580.252 253.238 552.905 233.411 548.284 204.316C543.664 175.222 563.522 147.897 592.62 143.311Z"/><path fill="#0A1A35" d="M595.332 170.593C603.123 170.233 605.911 170.236 613.436 172.4C604.205 178.308 600.023 184.327 607.656 194.443C616.625 206.329 625.105 188.045 630.71 188.502C634.813 192.628 634.54 217.609 627.321 220.452C624.608 220.854 622.599 219.486 620.112 218.237C619.479 217.971 618.838 217.722 618.191 217.492C600.203 211.086 589.604 213.997 573.368 221.681C560.559 198.519 570.414 177.917 595.332 170.593Z"/><path fill="#FDFDFD" d="M794.679 143.324C823.89 138.838 851.17 158.985 855.478 188.224C859.787 217.464 839.477 244.624 810.214 248.756C781.201 252.852 754.325 232.751 750.053 203.761C745.782 174.771 765.718 147.771 794.679 143.324Z"/><path fill="#0A1A35" d="M796.49 170.643C804.984 170.165 807.572 170.445 815.794 172.324C809.069 176.05 802.974 181.729 806.706 190.146C808.064 193.128 810.534 195.46 813.589 196.644C823.245 200.305 827.938 192.469 830.724 184.816C831.796 187.163 832.755 189.562 833.596 192.002C837.719 203.956 835.387 211.295 830.172 221.974L823.869 218.772C822.205 218.038 820.511 217.376 818.791 216.787C801.883 211.066 790.434 214.391 775.37 221.788C773.746 218.894 772.405 216.444 771.361 213.264C768.567 204.949 769.261 195.857 773.284 188.063C778.517 177.935 786.282 173.959 796.49 170.643Z"/><path fill="#F47316" d="M372.575 272.161C382.83 280.426 393.39 290.73 403.131 299.802L448.71 342.195C444.008 352.441 422.538 405.541 417.998 411.029L416.722 410.575C407.383 399.486 397.346 384.609 388.607 372.65L338.081 303.695C348.964 294.863 362.125 281.907 372.575 272.161Z"/><path fill="#F47316" d="M1030.45 272.102C1041.83 281.315 1054.3 293.595 1065.06 303.779C1057.79 315.492 1045.27 331.122 1036.77 342.62L987.115 410.383C986.352 411.267 986.638 410.963 985.509 411.504C982.651 408.034 974.403 387.868 972.215 382.762C966.376 369.055 960.424 355.398 954.36 341.79C980.517 319.353 1004.99 295.369 1030.45 272.102Z"/><path fill="#F47316" d="M349.227 142.991L360.499 151.662C367.584 157.178 375.641 163.766 383.008 168.723C373.129 182.376 362.015 196.543 352.756 210.364C335.429 210.512 333.674 217.051 335.057 233.106C320.249 255.08 303.288 275.663 288.101 297.39C287.173 298.717 286.22 300.021 285.198 301.278C277.84 295.884 270.115 290.409 263.113 284.597C259.46 282.036 255.388 278.821 251.772 276.109C263.088 259.489 276.057 242.666 288.017 226.423L349.227 142.991Z"/><path fill="#F4934C" d="M349.227 142.991L360.499 151.662C355.883 159.179 346.072 171.751 340.551 179.225L302.682 230.521L276.994 266C273.632 270.659 266.668 280.78 263.113 284.597C259.46 282.036 255.388 278.821 251.772 276.109C263.088 259.489 276.057 242.666 288.017 226.423L349.227 142.991Z"/><path fill="#D25C13" d="M940.757 617.073C951.888 619.273 979.478 616.951 993.197 617.542C967.219 699.815 896.531 734.765 815.402 742.709C826.227 736.502 836.895 731.291 847.333 724.229C889.708 695.561 917.666 661.969 940.757 617.073Z"/><path fill="#D25C13" d="M410.823 617.694C414.621 618.377 426.288 618.028 430.612 618.014C441.494 618.071 452.377 618.049 463.259 617.948C468.683 625.838 476.887 642.268 483.451 652.209C513.034 697.008 544.215 716.446 588.559 742.713C521.512 736.498 454.737 709.343 422.186 646.334C417.641 637.537 413.192 627.327 410.823 617.694Z"/><path fill="#D25C13" d="M1055.7 545.3C1080.64 546.112 1105.91 545.649 1130.92 545.827C1119.14 561.987 1102.84 578.148 1088.73 592.426C1085.7 595.285 1083.33 597.102 1080.04 599.611L1021.71 599.92L1021.83 582.576C1033.38 570.696 1044.11 556.652 1055.7 545.3Z"/><path fill="#F47316" d="M883.387 28.9949C893.729 28.4028 901.221 28.9206 910.392 34.7634C919.335 40.4289 925.632 49.4441 927.875 59.7907C930.166 70.0769 928.164 80.8525 922.332 89.6294C919.342 94.1304 911.515 102.384 905.769 104.047C904.254 104.486 903.681 103.596 902.387 102.606C885.56 79.4597 874.714 68.6729 853.199 50.8518L853.554 50.2574C861.426 37.3088 869.072 32.5475 883.387 28.9949Z"/><path fill="#F47316" d="M508.918 29.0068C528.295 27.7866 541.257 34.4118 550.643 51.6233C534.527 63.3007 518.98 79.5828 506.851 95.2232L499.3 105.244C488.028 98.5176 479.574 90.3942 476.27 77.0359C473.759 66.9177 475.402 56.2151 480.833 47.3163C487.5 36.5479 497.036 31.7594 508.918 29.0068Z"/><path fill="#F47316" d="M410.823 617.694C401.471 578.45 411.205 543.886 437.953 514.195C441.107 558.094 446.393 578.45 463.259 617.948C452.377 618.049 441.494 618.071 430.612 618.014C426.288 618.028 414.621 618.377 410.823 617.694Z"/><path fill="#F47316" d="M940.757 617.073C951.413 592.119 959.115 570.974 962.723 543.47C964.095 533.013 964.406 524.721 965.317 514.384C994.034 544.398 1000.46 577.529 993.197 617.542C979.478 616.951 951.888 619.273 940.757 617.073Z"/><path fill="#F4934C" d="M1082.71 441.693C1094.48 440.365 1107.43 445.038 1117.41 450.979C1100.99 467.938 1084.38 486.751 1068.47 504.249L1057.12 516.776C1053.04 501.679 1049.29 471.356 1046.84 454.814C1059.78 445.848 1067.29 443.324 1082.71 441.693Z"/><path fill="#D25C13" d="M1131.44 462.496C1134.49 464.855 1138.4 470.151 1140.01 473.61C1148.91 492.657 1148.31 508.047 1142.33 527.258C1125.24 526.897 1108.84 527.097 1091.75 527.294L1072.68 527.281C1091.4 505.166 1112.18 484.351 1131.44 462.496Z"/><path fill="#F47316" d="M700.284 194.19C711.828 193.881 718.552 195.972 728.33 201.388C729.706 214.676 733.346 223.47 739.626 234.946C727.699 230.972 718.362 229.829 705.926 229.553C688.515 229.35 680.907 230.229 664.243 234.555C671.525 221.607 673.507 215.902 675.415 201.35C684.954 196.328 689.615 195.023 700.284 194.19Z"/><path fill="#F4934C" d="M1030.15 474.137C1032.74 475.962 1039.79 526.852 1041.02 534.074C1033.66 542.639 1025.97 550.95 1018.58 559.621C1017.75 557.376 1016.94 554.615 1016.2 552.297C1011.67 537.437 1007.3 528.428 999.098 515.448C1009.55 502.161 1019.72 487.7 1030.15 474.137Z"/><path fill="#FDFDFD" d="M693.02 332.018C695.24 334.664 694.342 385.486 694.32 393.248C682.892 393.608 674.924 395.011 666.543 385.819C663.38 379.528 658.289 360.145 656.09 352.297C673.35 347.113 679.736 343.874 693.02 332.018Z"/><path fill="#FDFDFD" d="M709.482 331.925C711.536 333.127 716.917 337.565 719.212 339.221C728.959 346.255 735.926 348.912 747.274 352.008C744.288 362.823 741.338 374.061 737.861 384.69C732.044 395.006 719.603 393.46 709.411 393.251L709.482 331.925Z"/><path fill="#D25C13" d="M241.02 290.47C248.26 294.199 267.214 309.513 274.593 315.27C270.864 321.282 269.225 323.737 263.492 328.225C255.754 331.447 246.684 330.913 239.95 325.65C235.607 322.213 232.789 317.207 232.105 311.711C231.082 302.872 236.065 296.904 241.02 290.47Z"/><path fill="#D25C13" d="M1019.17 618.143L1058 618.745C1048.38 626.883 1039.84 632.83 1029.5 639.843L1006.68 655.353C1012.99 642.119 1015.72 632.178 1019.17 618.143Z"/><path fill="#FDFDFD" d="M386.037 118.168C389.267 119.394 393.119 122.441 396.023 124.52C394.213 133.82 392.965 143.567 391.62 152.968L380.633 144.936L361.671 130.647C369.845 126.591 377.968 122.431 386.037 118.168Z"/><path fill="#F47316" d="M1037.11 94.3172C1038.51 94.1583 1040.18 93.9731 1041.58 93.9591C1044.86 93.9143 1048 95.2462 1050.25 97.6307C1057.03 104.786 1055.1 123.022 1054.75 132.732L1063.55 132.471C1077.95 132.117 1104.04 132.839 1089.69 154.406C1085.6 160.55 1062.03 158.387 1054.66 158.229C1054.66 166.881 1055.78 178.101 1054.07 186.411C1052.96 191.83 1050.27 193.973 1045.79 196.567C1023.48 198.434 1027.99 173.846 1028.61 158.489L1017.07 158.665C1005.66 158.787 989.358 160.004 990.071 143.586C990.158 141.106 991.268 138.772 993.136 137.138C1000.41 130.688 1019.15 132.19 1028.57 132.705C1028.55 118.936 1024.62 103.786 1037.11 94.3172Z"/></svg>